<?xml version="1.0" encoding="utf-8"?>
<!-- Generator: Adobe Illustrator 22.0.1, SVG Export Plug-In . SVG Version: 6.00 Build 0)  -->
<svg version="1.1" id="Layer_1" xmlns="http://www.w3.org/2000/svg" xmlns:xlink="http://www.w3.org/1999/xlink" x="0px" y="0px"
	 viewBox="0 0 395.3 382" style="enable-background:new 0 0 395.3 382;" xml:space="preserve">
<style type="text/css">
	.st0{fill:#231F20;}
	.st1{fill:#575A5C;}
	.st2{fill:#343537;}
	.st3{fill:none;stroke:#2491D0;stroke-width:0;stroke-linecap:round;stroke-linejoin:round;}
	.st4{fill:none;stroke:#343537;stroke-width:0;stroke-linecap:round;stroke-linejoin:round;}
</style>
<g>
	<polygon class="st0" points="262.7,20 262.7,20.8 262.9,20.5 263,20.5 263,146.6 262.7,146.9 262.7,147.2 389.9,147.2 389.9,20 	
		"/>
	<polygon class="st1" points="178.3,109.7 52.1,109.7 52.1,235.8 178.3,235.8 178.3,235.2 178.3,110.4 	"/>
	<path class="st2" d="M263,20.5L263,20.5l-0.3,0.2l-84.3,89.5l0-0.1c0,0.1-0.1,0.2-0.1,0.2v124.8l84.5-88.3l0.3-0.3V20.5z"/>
	<rect x="263.1" y="153.3" class="st0" width="126.2" height="126.2"/>
	<polygon class="st1" points="178.2,242.5 52,242.5 52,368.6 178.2,368.6 178.2,368 178.2,243.2 	"/>
	<path class="st2" d="M178.3,243L178.3,243c-0.1,0-0.1,0.1-0.1,0.1V368l84.8-88.6V153.3h-0.1L178.3,243z"/>
	<line class="st3" x1="0.5" y1="20.5" x2="0.5" y2="20.5"/>
	<polygon class="st0" points="126.8,22.5 126.8,18.5 0.5,18.5 0.5,20.5 0.5,22.5 	"/>
	<line class="st4" x1="60.7" y1="98.2" x2="60.7" y2="98.2"/>
	<line class="st4" x1="125.6" y1="30" x2="125.6" y2="30"/>
	<polygon class="st2" points="126.3,30.7 125.6,30 124.8,29.3 60,97.5 60.7,98.2 61.4,98.9 	"/>
</g>
</svg>
