<?xml version="1.0" encoding="utf-8"?>
<!-- Generator: Adobe Illustrator 22.0.1, SVG Export Plug-In . SVG Version: 6.00 Build 0)  -->
<svg version="1.1" id="Layer_1" xmlns="http://www.w3.org/2000/svg" xmlns:xlink="http://www.w3.org/1999/xlink" x="0px" y="0px"
	 viewBox="0 0 1920 445.2" style="enable-background:new 0 0 1920 445.2;" xml:space="preserve">
<style type="text/css">
	.st0{fill:none;}
	.st1{fill:#3C3D3D;}
	.st2{fill:#231F20;}
	.st3{fill:#575A5B;}
	.st4{fill:#333537;}
	.st5{fill:#221F1F;}
	.st6{fill:none;stroke:#2491D0;stroke-width:0;stroke-linecap:round;stroke-linejoin:round;}
	.st7{fill:none;stroke:#343537;stroke-width:0;stroke-linecap:round;stroke-linejoin:round;}
	.st8{fill:#343537;}
</style>
<g>
	<path class="st0" d="M931.9,155.9c1.1-2.1,1.7-4.7,1.7-7.7c0-3.1-0.6-5.7-1.7-7.8c-1.1-2-2.7-3.7-4.6-4.8c-1.9-1.2-4.1-2-6.6-2.5
		c-2.5-0.5-5.1-0.7-7.7-0.7h-25.5v32.7h25c3,0,5.8-0.3,8.3-0.9c2.6-0.6,4.8-1.6,6.7-3C929.3,159.8,930.8,158,931.9,155.9z"/>
	<polygon class="st0" points="795.3,177 828.6,177 812,132.4 	"/>
	<path class="st0" d="M1756.1,155.9c1.1-2.1,1.7-4.7,1.7-7.7c0-3.1-0.6-5.7-1.7-7.8c-1.1-2-2.7-3.7-4.6-4.8c-1.9-1.2-4.1-2-6.6-2.5
		c-2.5-0.5-5.1-0.7-7.7-0.7h-25.5v32.7h25c3,0,5.8-0.3,8.3-0.9c2.6-0.6,4.8-1.6,6.7-3C1753.6,159.8,1755,158,1756.1,155.9z"/>
	<polygon class="st1" points="554.2,132.4 581.1,132.4 581.1,210.5 589.1,210.5 589.1,132.4 616,132.4 616,125.6 554.2,125.6 	"/>
	<polygon class="st1" points="638.5,132.4 665.4,132.4 665.4,210.5 673.5,210.5 673.5,132.4 700.4,132.4 700.4,125.6 638.5,125.6 	
		"/>
	<path class="st1" d="M807.7,125.6l-33.4,84.9h8.3l10-26.7h38.7l9.8,26.7h8.3l-32.6-84.9H807.7z M795.3,177l16.6-44.6l16.6,44.6
		H795.3z"/>
	<path class="st1" d="M940.8,208c-0.4-0.7-0.7-1.8-1-3.1c-0.3-1.3-0.5-3.1-0.7-5.2c-0.2-2.1-0.3-4.8-0.4-8c-0.1-2.2-0.2-4.5-0.4-6.8
		c-0.2-2.4-0.6-4.6-1.4-6.7c-0.7-2.1-1.8-4-3.2-5.7c-1.4-1.7-3.4-2.9-5.9-3.8c4.9-2.2,8.4-4.9,10.6-8c2.2-3.1,3.2-7.4,3.2-12.7
		c0-7.9-2.5-13.5-7.4-17c-5-3.5-12.1-5.2-21.5-5.2h-33.3v84.8l8,0.1V172h25.2c2,0,3.9,0.1,5.7,0.4c1.8,0.2,3.5,0.7,5,1.4
		c1.5,0.7,2.8,1.8,3.8,3.1c1.1,1.4,1.8,3.2,2.3,5.5c0.3,1.7,0.5,3.8,0.6,6.4c0.1,2.6,0.3,5.3,0.5,8c0.2,2.8,0.5,5.4,0.8,7.9
		c0.4,2.5,1,4.5,1.8,5.9l8.8-0.1v-0.7C941.6,209.3,941.2,208.7,940.8,208z M920.8,164.2c-2.6,0.6-5.3,0.9-8.3,0.9h-25v-32.7h25.5
		c2.7,0,5.2,0.2,7.7,0.7c2.5,0.5,4.7,1.3,6.6,2.5c1.9,1.2,3.5,2.8,4.6,4.8c1.1,2,1.7,4.6,1.7,7.8c0,3-0.6,5.5-1.7,7.7
		c-1.1,2.1-2.6,3.9-4.5,5.2C925.6,162.5,923.3,163.5,920.8,164.2z"/>
	<path class="st1" d="M1034.6,191.9c-1.5,2.8-3.4,5.3-5.7,7.4c-2.2,2.1-4.9,3.7-7.8,4.9c-3,1.2-6.3,1.8-9.9,1.8
		c-5.8,0-10.7-1.1-14.5-3.3c-3.9-2.2-6.9-5.1-9.2-8.7c-2.3-3.6-3.9-7.6-4.9-12.2c-1-4.6-1.5-9.2-1.5-13.9c0-5,0.6-9.8,1.7-14.3
		c1.1-4.5,2.9-8.5,5.3-12c2.4-3.5,5.4-6.2,9.1-8.3c3.7-2,8.1-3.1,13.2-3.1c7.2,0,13.1,1.5,17.6,4.6c4.5,3.1,7.5,8.2,9.2,15.5h8.3
		c-0.7-4.4-2-8.3-3.8-11.6c-1.8-3.3-4.2-6.2-7.1-8.4c-2.9-2.3-6.2-4-9.9-5.1c-3.7-1.1-7.8-1.7-12.1-1.7c-5.7,0-10.9,0.8-15.7,2.4
		c-4.8,1.6-9,4.2-12.5,7.8c-3.5,3.6-6.3,8.2-8.3,13.9c-2,5.7-3,12.5-3,20.6c0,6.1,0.7,11.8,2,17.2c1.3,5.4,3.5,10.1,6.4,14.2
		c2.9,4.1,6.7,7.3,11.4,9.7c4.6,2.4,10.2,3.6,16.8,3.6c5.7,0,10.6-0.8,14.8-2.4c4.2-1.6,7.8-3.8,10.7-6.5c2.9-2.8,5.3-6,7.1-9.6
		c1.8-3.7,3.2-7.5,4.1-11.6h-8.4C1037.3,186,1036.1,189.1,1034.6,191.9z"/>
	<polygon class="st1" points="1139.1,162 1088.8,162 1088.8,125.6 1080.8,125.6 1080.8,210.5 1088.8,210.5 1088.8,168.9 
		1139.1,168.9 1139.1,210.5 1147.1,210.5 1147.1,125.6 1139.1,125.6 	"/>
	<rect x="1187.7" y="125.6" class="st1" width="8" height="84.9"/>
	<polygon class="st1" points="1228.7,132.4 1255.6,132.4 1255.6,210.5 1263.6,210.5 1263.6,132.4 1290.5,132.4 1290.5,125.6 
		1228.7,125.6 	"/>
	<polygon class="st1" points="1328.8,169.9 1372.5,169.9 1372.5,163.1 1328.8,163.1 1328.8,132.4 1377.2,132.4 1377.2,125.6 
		1320.7,125.6 1320.7,210.5 1378.4,210.5 1378.4,203.7 1328.8,203.7 	"/>
	<path class="st1" d="M1469.2,191.9c-1.5,2.8-3.4,5.3-5.7,7.4c-2.2,2.1-4.9,3.7-7.8,4.9c-3,1.2-6.3,1.8-9.9,1.8
		c-5.8,0-10.7-1.1-14.5-3.3c-3.9-2.2-6.9-5.1-9.2-8.7c-2.3-3.6-3.9-7.6-4.9-12.2c-1-4.6-1.5-9.2-1.5-13.9c0-5,0.6-9.8,1.7-14.3
		c1.1-4.5,2.9-8.5,5.3-12c2.4-3.5,5.4-6.2,9.1-8.3c3.7-2,8.1-3.1,13.2-3.1c7.2,0,13.1,1.5,17.6,4.6c4.5,3.1,7.5,8.2,9.2,15.5h8.3
		c-0.7-4.4-2-8.3-3.8-11.6c-1.8-3.3-4.2-6.2-7.1-8.4c-2.9-2.3-6.2-4-9.9-5.1c-3.7-1.1-7.8-1.7-12.1-1.7c-5.7,0-10.9,0.8-15.7,2.4
		c-4.8,1.6-9,4.2-12.5,7.8c-3.5,3.6-6.3,8.2-8.3,13.9c-2,5.7-3,12.5-3,20.6c0,6.1,0.7,11.8,2,17.2c1.3,5.4,3.5,10.1,6.4,14.2
		c2.9,4.1,6.7,7.3,11.4,9.7c4.6,2.4,10.2,3.6,16.8,3.6c5.7,0,10.6-0.8,14.8-2.4c4.2-1.6,7.8-3.8,10.7-6.5c2.9-2.8,5.3-6,7.1-9.6
		c1.8-3.7,3.2-7.5,4.1-11.6h-8.4C1471.9,186,1470.7,189.1,1469.2,191.9z"/>
	<polygon class="st1" points="1507.8,132.4 1534.7,132.4 1534.7,210.5 1542.7,210.5 1542.7,132.4 1569.6,132.4 1569.6,125.6 
		1507.8,125.6 	"/>
	<path class="st1" d="M1657.8,176.2c0,5-0.4,9.4-1.3,13.1c-0.9,3.7-2.3,6.8-4.2,9.3c-2,2.5-4.5,4.3-7.7,5.5
		c-3.2,1.2-7.1,1.8-11.6,1.8c-8.7,0-15.1-2.3-19-7c-3.9-4.6-5.9-12.2-5.9-22.8v-50.6h-8v53c0,10.9,2.7,19.3,8.1,25.2
		c5.4,6,13.7,9,24.8,9c11,0,19.2-2.9,24.7-8.8c5.5-5.9,8.2-14.3,8.2-25.4v-53h-8V176.2z"/>
	<path class="st1" d="M1765,208c-0.4-0.7-0.7-1.8-1-3.1c-0.3-1.3-0.5-3.1-0.7-5.2c-0.2-2.1-0.3-4.8-0.4-8c-0.1-2.2-0.2-4.5-0.4-6.8
		c-0.2-2.4-0.6-4.6-1.4-6.7c-0.7-2.1-1.8-4-3.2-5.7c-1.4-1.7-3.4-2.9-5.9-3.8c4.9-2.2,8.4-4.9,10.6-8c2.2-3.1,3.2-7.4,3.2-12.7
		c0-7.9-2.5-13.5-7.4-17c-5-3.5-12.1-5.2-21.5-5.2h-33.3v84.8l8,0.1V172h25.2c2,0,3.9,0.1,5.7,0.4c1.8,0.2,3.5,0.7,5,1.4
		c1.5,0.7,2.8,1.8,3.8,3.1c1.1,1.4,1.8,3.2,2.3,5.5c0.3,1.7,0.5,3.8,0.6,6.4c0.1,2.6,0.3,5.3,0.5,8c0.2,2.8,0.5,5.4,0.8,7.9
		c0.4,2.5,1,4.5,1.8,5.9l8.8-0.1v-0.7C1765.9,209.3,1765.4,208.7,1765,208z M1745,164.2c-2.6,0.6-5.3,0.9-8.3,0.9h-25v-32.7h25.5
		c2.7,0,5.2,0.2,7.7,0.7c2.5,0.5,4.7,1.3,6.6,2.5c1.9,1.2,3.5,2.8,4.6,4.8c1.1,2,1.7,4.6,1.7,7.8c0,3-0.6,5.5-1.7,7.7
		c-1.1,2.1-2.6,3.9-4.5,5.2C1749.8,162.5,1747.6,163.5,1745,164.2z"/>
	<polygon class="st1" points="1809.2,203.7 1809.2,169.9 1853,169.9 1853,163.1 1809.2,163.1 1809.2,132.4 1857.7,132.4 
		1857.7,125.6 1801.2,125.6 1801.2,210.5 1858.9,210.5 1858.9,203.7 	"/>
	<polygon class="st2" points="345.7,42.5 345.9,42.2 346,42.2 346,178.4 345.7,178.7 345.7,179 483,179 483,41.7 345.7,41.7 	"/>
	<polygon class="st3" points="254.4,138.5 118.2,138.5 118.2,274.8 254.4,274.8 254.4,274.1 254.4,139.3 	"/>
	<path class="st4" d="M346,42.2h-0.1l-0.2,0.3l-91.1,96.7l0-0.1c0,0.1-0.1,0.2-0.1,0.3v134.8l91.2-95.4l0.3-0.4V42.2z"/>
	<rect x="346.1" y="185.6" class="st5" width="136.3" height="136.3"/>
	<polygon class="st3" points="254.3,281.9 118.1,281.9 118.1,418.2 254.3,418.2 254.3,417.5 254.3,282.7 	"/>
	<path class="st4" d="M254.5,282.6L254.5,282.6c-0.1,0-0.1,0.1-0.2,0.2v134.8l91.6-95.7V185.6h-0.1L254.5,282.6z"/>
	<line class="st6" x1="62.4" y1="42.2" x2="62.4" y2="42.2"/>
	<polygon class="st2" points="198.9,44.4 198.9,40.1 62.4,40.1 62.4,42.2 62.4,44.4 	"/>
	<line class="st7" x1="127.4" y1="126.1" x2="127.4" y2="126.1"/>
	<polygon class="st8" points="198.3,53.2 196.7,51.7 126.7,125.4 127.4,126.1 128.2,126.9 	"/>
</g>
</svg>
