<?xml version="1.0" encoding="utf-8"?>
<!-- Generator: Adobe Illustrator 22.0.1, SVG Export Plug-In . SVG Version: 6.00 Build 0)  -->
<svg version="1.1" id="Layer_1" xmlns="http://www.w3.org/2000/svg" xmlns:xlink="http://www.w3.org/1999/xlink" x="0px" y="0px"
	 viewBox="0 0 400 400" style="enable-background:new 0 0 400 400;" xml:space="preserve">
<style type="text/css">
	.st0{fill:#D1D3D4;}
	.st1{fill:#F1F2F2;}
	.st2{fill:#E6E7E8;}
	.st3{fill:none;stroke:#2491D0;stroke-width:0;stroke-linecap:round;stroke-linejoin:round;}
	.st4{fill:none;stroke:#343537;stroke-width:0;stroke-linecap:round;stroke-linejoin:round;}
</style>
<g>
	<polygon class="st0" points="267.4,20 267.4,20.8 267.7,20.5 267.8,20.5 267.8,146.6 267.4,146.9 267.4,147.2 394.6,147.2 
		394.6,20 	"/>
	<polygon class="st1" points="183,109.7 56.8,109.7 56.8,235.8 183,235.8 183,235.2 183,110.4 	"/>
	<path class="st2" d="M267.8,20.5L267.8,20.5l-0.3,0.2l-84.3,89.5l0-0.1c0,0.1-0.1,0.2-0.1,0.2v124.8l84.5-88.3l0.3-0.3V20.5z"/>
	<rect x="267.9" y="153.3" class="st0" width="126.2" height="126.2"/>
	<polygon class="st1" points="182.9,242.5 56.7,242.5 56.7,368.6 182.9,368.6 182.9,368 182.9,243.2 	"/>
	<path class="st2" d="M183,243L183,243c-0.1,0-0.1,0.1-0.1,0.1V368l84.8-88.6V153.3h-0.1L183,243z"/>
	<line class="st3" x1="5.2" y1="20.5" x2="5.2" y2="20.5"/>
	<polygon class="st0" points="131.5,22.5 131.5,18.5 5.2,18.5 5.2,20.5 5.2,22.5 	"/>
	<line class="st4" x1="65.4" y1="98.2" x2="65.4" y2="98.2"/>
	<line class="st4" x1="130.3" y1="30" x2="130.3" y2="30"/>
	<polygon class="st2" points="131,30.7 130.3,30 129.6,29.3 64.7,97.5 65.4,98.2 66.1,98.9 	"/>
</g>
</svg>
